<?xml version="1.0" encoding="UTF-8" standalone="no"?>
<svg xmlns="http://www.w3.org/2000/svg" version="1.0" width="974.92786" height="1000.0">
<!-- X Coordinate transform: fx(x)=(x+0.9960172)*466.23492-->
<!-- Y Coordinate transform: fy(y)=(1.0724207-y)*466.23492 -->
<g style="stroke:#000000;stroke-width:4.874639;stroke-opacity:1.00;fill-opacity:00">
<!-- Group: <Default>-->
</g>
<g style="stroke:#000000;stroke-width:4.874639;stroke-opacity:1.00;fill-opacity:00">
<!-- Group: poly-->
<path d="M 930.613,500 360.631,45.455" />
<path d="M 360.631,45.455 44.315,702.292" />
<path d="M 44.315,702.292 755.071,864.517" />
<path d="M 755.071,864.517 755.071,135.483" />
<path d="M 44.315,297.708 755.071,135.483" />
<path d="M 360.631,954.545 44.315,297.708" />
<path d="M 930.613,500 360.631,954.545" />
</g>
<g style="stroke:#000000;stroke-width:0.6499519;fill:#ff007f">
<circle cx="930.613" cy="500" r="7.7994227"/>
<circle cx="360.631" cy="45.455" r="7.7994227"/>
<circle cx="360.631" cy="45.455" r="7.7994227"/>
<circle cx="44.315" cy="702.292" r="7.7994227"/>
<circle cx="44.315" cy="702.292" r="7.7994227"/>
<circle cx="755.071" cy="864.517" r="7.7994227"/>
<circle cx="755.071" cy="864.517" r="7.7994227"/>
<circle cx="755.071" cy="135.483" r="7.7994227"/>
<circle cx="755.071" cy="135.483" r="7.7994227"/>
<circle cx="44.315" cy="297.708" r="7.7994227"/>
<circle cx="44.315" cy="297.708" r="7.7994227"/>
<circle cx="360.631" cy="954.545" r="7.7994227"/>
<circle cx="360.631" cy="954.545" r="7.7994227"/>
<circle cx="930.613" cy="500" r="7.7994227"/>
</g>
</svg>
